<svg xmlns="http://www.w3.org/2000/svg" width="400" height="400" viewBox="100 100 400 400"><g id="Layer_x0020_1" transform="matrix(0.32407, 0, 0, 0.32407, 171.8405, 236.842133)"><g id="_1578083601936"><g><g><linearGradient id="SVGID_1_" x1="9" x2="655" y1="199.776" y2="199.776" gradientTransform="matrix(1 0 0 -1 0 399.2756)" gradientUnits="userSpaceOnUse"><stop offset="0" style="stop-color:#734ce2"/><stop offset=".62" style="stop-color:#604df1"/><stop offset="1" style="stop-color:#524dfb"/></linearGradient><path d="M534,60c11,0,21,4,29,12l43,43c6,6,14,9,22,9c7,0,14-2,19-7c7-6,10-14,10-23c0-8-3-15-9-21l-43-43 c-19-19-45-30-72-30s-53,11-72,30L173,318c-13,13-30,20-48,20l0,0c-17,0-33-6-45-18c-13-13-20-30-20-48s7-34,19-47l13-13l25,25 v-94H23l27,27l-12,12c-50,50-50,130-1,180c24,24,56,37,90,37s65-13,89-37L506,72C513,64,523,60,534,60z" class="st0" style="fill:url(#SVGID_1_)"/><path d="M756,182l-21-21l27-27h-94v94l25-25l23,23c12,12,19,29,19,47s-7,35-20,48c-12,12-28,18-45,18 c-18,0-35-7-48-20L468,165l-43,43l155,155c24,24,56,37,89,37c34,0,66-13,90-37c48-49,47-130-2-180L756,182z" class="st1" style="fill:#524dfb"/><path d="M137,126c5,5,12,7,19,7c8,0,16-4,22-9l52-52c8-8,18-12,29-12s21,4,29,12l39,39l43-43l-38-38 c-19-19-45-30-72-30s-53,11-72,30l-52,52c-6,6-9,13-9,21c0,9,4,17,11,23H137z" class="st2" style="fill:#6e4ce6"/></g></g></g></g></svg>